<svg xmlns="http://www.w3.org/2000/svg" xmlns:xlink="http://www.w3.org/1999/xlink" version="1.1" x="0px" y="0px" width="100px" height="100px" viewBox="0 0 100 100" enable-background="new 0 0 100 100" xml:space="preserve">
<path d="M85.923,26.476h-27.87l9.028-9.03c1.079-1.079,1.079-2.828,0-3.908c-1.076-1.078-2.828-1.078-3.906,0L50.237,26.476h-0.475  L36.826,13.538c-1.079-1.078-2.831-1.078-3.91,0c-1.078,1.08-1.078,2.83,0,3.908l9.031,9.03h-27.87c-4.579,0-8.29,3.711-8.29,8.29  V78.98c0,4.576,3.711,8.29,8.29,8.29h71.846c4.58,0,8.29-3.714,8.29-8.29V34.766C94.213,30.188,90.503,26.476,85.923,26.476z   M69.343,73.453c0,3.052-2.475,5.527-5.526,5.527h-41.45c-3.052,0-5.526-2.476-5.526-5.527V43.056c0-3.052,2.474-5.526,5.526-5.526  h41.45c3.052,0,5.526,2.475,5.526,5.526V73.453z M83.159,73.453c-3.052,0-5.526-2.475-5.526-5.526c0-3.055,2.475-5.526,5.526-5.526  s5.527,2.472,5.527,5.526C88.687,70.979,86.211,73.453,83.159,73.453z M83.159,54.11c-3.052,0-5.526-2.474-5.526-5.528  c0-3.052,2.475-5.527,5.526-5.527s5.527,2.475,5.527,5.527C88.687,51.637,86.211,54.11,83.159,54.11z"/>
</svg>